{
  "accessors": [
    {
      "bufferView": 2,
      "componentType": 5126,
      "count": 4198,
      "max": [
        16.183639526367188,
        2.5566487312316895,
        32.87427520751953
      ],
      "min": [
        -16.183639526367188,
        -15.880456924438477,
        -4.811643123626709
      ],
      "type": "VEC3"
    },
    {
      "bufferView": 2,
      "byteOffset": 50376,
      "componentType": 5126,
      "count": 4198,
      "max": [
        0.9953522086143494,
        0.9986404180526733,
        0.9997321367263794
      ],
      "min": [
        -0.9953521490097046,
        -0.9995876550674438,
        -0.9971910119056702
      ],
      "type": "VEC3"
    },
    {
      "bufferView": 1,
      "componentType": 5126,
      "count": 4198,
      "max": [
        0.715798020362854,
        0.9641890525817871
      ],
      "min": [
        0.03369557857513428,
        0.041927725076675415
      ],
      "type": "VEC2"
    },
    {
      "bufferView": 0,
      "componentType": 5125,
      "count": 23904,
      "type": "SCALAR"
    },
    {
      "bufferView": 2,
      "byteOffset": 100752,
      "componentType": 5126,
      "count": 4198,
      "max": [
        16.490800857543945,
        2.862492084503174,
        33.17683410644531
      ],
      "min": [
        -16.490800857543945,
        -16.188095092773438,
        -5.113808631896973
      ],
      "type": "VEC3"
    },
    {
      "bufferView": 2,
      "byteOffset": 151128,
      "componentType": 5126,
      "count": 4198,
      "max": [
        0.9972663521766663,
        0.9998130202293396,
        0.9996657967567444
      ],
      "min": [
        -0.9972662925720215,
        -0.9990988373756409,
        -0.9939835071563721
      ],
      "type": "VEC3"
    },
    {
      "bufferView": 1,
      "byteOffset": 33584,
      "componentType": 5126,
      "count": 4198,
      "max": [
        0.715798020362854,
        0.9641890525817871
      ],
      "min": [
        0.03369557857513428,
        0.041927725076675415
      ],
      "type": "VEC2"
    },
    {
      "bufferView": 0,
      "byteOffset": 95616,
      "componentType": 5125,
      "count": 23904,
      "type": "SCALAR"
    }
  ],
  "asset": {
    "extras": {
      "author": "fenixman12 (https://sketchfab.com/fenixman12)",
      "license": "CC-BY-4.0 (http://creativecommons.org/licenses/by/4.0/)",
      "source": "https://sketchfab.com/3d-models/kitsune-mask-cc027effc78844f6a3774ca0352a20f9",
      "title": "Kitsune Mask"
    },
    "generator": "Sketchfab-15.29.0",
    "version": "2.0"
  },
  "bufferViews": [
    {
      "buffer": 0,
      "byteLength": 191232,
      "name": "floatBufferViews",
      "target": 34963
    },
    {
      "buffer": 0,
      "byteLength": 67168,
      "byteOffset": 191232,
      "byteStride": 8,
      "name": "floatBufferViews",
      "target": 34962
    },
    {
      "buffer": 0,
      "byteLength": 201504,
      "byteOffset": 258400,
      "byteStride": 12,
      "name": "floatBufferViews",
      "target": 34962
    }
  ],
  "buffers": [
    {
      "byteLength": 459904,
      "uri": "scene.bin"
    }
  ],
  "images": [
    {
      "uri": "textures/Material_27_baseColor.png"
    }
  ],
  "materials": [
    {
      "doubleSided": true,
      "name": "Material_27",
      "pbrMetallicRoughness": {
        "baseColorTexture": {
          "index": 0
        },
        "metallicFactor": 0.0,
        "roughnessFactor": 0.8929713596497552
      }
    },
    {
      "name": "Material_27_0",
      "pbrMetallicRoughness": {
        "baseColorFactor": [
          0.0,
          0.0,
          0.0,
          1.0
        ],
        "metallicFactor": 0.0,
        "roughnessFactor": 0.8929713596497552
      }
    }
  ],
  "meshes": [
    {
      "name": "Box001_Material #27_0",
      "primitives": [
        {
          "attributes": {
            "NORMAL": 1,
            "POSITION": 0,
            "TEXCOORD_0": 2
          },
          "indices": 3,
          "material": 0,
          "mode": 4
        }
      ]
    },
    {
      "name": "Box002_Material #27_0",
      "primitives": [
        {
          "attributes": {
            "NORMAL": 5,
            "POSITION": 4,
            "TEXCOORD_0": 6
          },
          "indices": 7,
          "material": 1,
          "mode": 4
        }
      ]
    }
  ],
  "nodes": [
    {
      "children": [
        1
      ],
      "matrix": [
        1.0,
        0.0,
        0.0,
        0.0,
        0.0,
        2.220446049250313e-16,
        -1.0,
        0.0,
        0.0,
        1.0,
        2.220446049250313e-16,
        0.0,
        0.0,
        0.0,
        0.0,
        1.0
      ],
      "name": "Sketchfab_model"
    },
    {
      "children": [
        2
      ],
      "matrix": [
        0.02539999969303608,
        0.0,
        0.0,
        0.0,
        0.0,
        0.0,
        0.02539999969303608,
        0.0,
        0.0,
        -0.02539999969303608,
        0.0,
        0.0,
        0.0,
        0.0,
        0.0,
        1.0
      ],
      "name": "Mask.FBX"
    },
    {
      "children": [
        3,
        5
      ],
      "name": "RootNode"
    },
    {
      "children": [
        4
      ],
      "matrix": [
        0.9999999999999982,
        -3.308722450212111e-24,
        5.960464477539052e-08,
        0.0,
        5.960464477539052e-08,
        2.220446049250313e-16,
        -0.9999999999999981,
        0.0,
        -3.308722450212111e-24,
        0.9999999999999999,
        2.220446049250313e-16,
        0.0,
        0.0,
        0.0,
        0.0,
        1.0
      ],
      "name": "Box001"
    },
    {
      "mesh": 0,
      "name": "Box001_Material #27_0"
    },
    {
      "children": [
        6
      ],
      "matrix": [
        0.9999999999999982,
        -3.308722450212111e-24,
        5.960464477539052e-08,
        0.0,
        5.960464477539052e-08,
        2.220446049250313e-16,
        -0.9999999999999981,
        0.0,
        -3.308722450212111e-24,
        0.9999999999999999,
        2.220446049250313e-16,
        0.0,
        0.0,
        0.0,
        0.0,
        1.0
      ],
      "name": "Box002"
    },
    {
      "mesh": 1,
      "name": "Box002_Material #27_0"
    }
  ],
  "samplers": [
    {
      "magFilter": 9729,
      "minFilter": 9987,
      "wrapS": 10497,
      "wrapT": 10497
    }
  ],
  "scene": 0,
  "scenes": [
    {
      "name": "Sketchfab_Scene",
      "nodes": [
        0
      ]
    }
  ],
  "textures": [
    {
      "sampler": 0,
      "source": 0
    }
  ]
}
