{
  "accessors": [
    {
      "bufferView": 2,
      "componentType": 5126,
      "count": 20409,
      "max": [
        5.18145751953125,
        6.43753719329834,
        18.26398277282715
      ],
      "min": [
        -5.523041248321533,
        -8.496659278869629,
        -26.96866226196289
      ],
      "type": "VEC3"
    },
    {
      "bufferView": 2,
      "byteOffset": 244908,
      "componentType": 5126,
      "count": 20409,
      "max": [
        1.0,
        1.0,
        1.0
      ],
      "min": [
        -0.9999729990959167,
        -1.0,
        -1.0
      ],
      "type": "VEC3"
    },
    {
      "bufferView": 1,
      "componentType": 5126,
      "count": 20409,
      "max": [
        0.9882538318634033,
        0.9830976724624634
      ],
      "min": [
        0.030224721878767014,
        0.00999470241367817
      ],
      "type": "VEC2"
    },
    {
      "bufferView": 0,
      "componentType": 5125,
      "count": 27804,
      "type": "SCALAR"
    }
  ],
  "asset": {
    "extras": {
      "author": "Scraick (https://sketchfab.com/Scraick)",
      "license": "CC-BY-4.0 (http://creativecommons.org/licenses/by/4.0/)",
      "source": "https://sketchfab.com/3d-models/stone-bot-5e6ec27b19bb4876ad6a28aae067dc66",
      "title": "Stone Bot"
    },
    "generator": "Sketchfab-12.67.0",
    "version": "2.0"
  },
  "bufferViews": [
    {
      "buffer": 0,
      "byteLength": 111216,
      "name": "floatBufferViews",
      "target": 34963
    },
    {
      "buffer": 0,
      "byteLength": 163272,
      "byteOffset": 111216,
      "byteStride": 8,
      "name": "floatBufferViews",
      "target": 34962
    },
    {
      "buffer": 0,
      "byteLength": 489816,
      "byteOffset": 274488,
      "byteStride": 12,
      "name": "floatBufferViews",
      "target": 34962
    }
  ],
  "buffers": [
    {
      "byteLength": 764304,
      "uri": "scene.bin"
    }
  ],
  "extensionsRequired": [
    "KHR_materials_pbrSpecularGlossiness"
  ],
  "extensionsUsed": [
    "KHR_materials_pbrSpecularGlossiness"
  ],
  "images": [
    {
      "uri": "textures/Material_2_diffuse.jpeg"
    },
    {
      "uri": "textures/Material_2_emissive.jpeg"
    }
  ],
  "materials": [
    {
      "doubleSided": true,
      "emissiveFactor": [
        1.0,
        1.0,
        1.0
      ],
      "emissiveTexture": {
        "index": 1
      },
      "extensions": {
        "KHR_materials_pbrSpecularGlossiness": {
          "diffuseFactor": [
            1.0,
            1.0,
            1.0,
            1.0
          ],
          "diffuseTexture": {
            "index": 0
          },
          "glossinessFactor": 0.2156184934220224,
          "specularFactor": [
            0.0,
            0.0,
            0.0
          ]
        }
      },
      "name": "Material_2"
    }
  ],
  "meshes": [
    {
      "name": "Bot_Material #2_0",
      "primitives": [
        {
          "attributes": {
            "NORMAL": 1,
            "POSITION": 0,
            "TEXCOORD_0": 2
          },
          "indices": 3,
          "material": 0,
          "mode": 4
        }
      ]
    }
  ],
  "nodes": [
    {
      "children": [
        1
      ],
      "matrix": [
        1.0,
        0.0,
        0.0,
        0.0,
        0.0,
        2.220446049250313e-16,
        -1.0,
        0.0,
        0.0,
        1.0,
        2.220446049250313e-16,
        0.0,
        0.0,
        2.465190328815662e-32,
        -1.1102230246251565e-16,
        1.0
      ],
      "name": "Sketchfab_model"
    },
    {
      "children": [
        2
      ],
      "matrix": [
        1.0,
        0.0,
        0.0,
        0.0,
        0.0,
        0.0,
        1.0,
        0.0,
        0.0,
        -1.0,
        0.0,
        0.0,
        0.0,
        0.0,
        0.0,
        1.0
      ],
      "name": "db358b299f004e01b30f0923ce72d8d5.fbx"
    },
    {
      "children": [
        3
      ],
      "name": "RootNode"
    },
    {
      "children": [
        4
      ],
      "matrix": [
        0.14754387736320496,
        0.0,
        0.0,
        0.0,
        0.0,
        1.951109622881494e-17,
        -0.08787016570568085,
        0.0,
        0.0,
        0.0424809530377388,
        9.43266643410352e-18,
        0.0,
        0.005192399024963379,
        0.5097389817237854,
        0.564653217792511,
        1.0
      ],
      "name": "Bot"
    },
    {
      "children": [
        5
      ],
      "matrix": [
        1.0,
        0.0,
        -0.0,
        0.0,
        0.0,
        1.0,
        0.0,
        0.0,
        0.0,
        0.0,
        1.0,
        0.0,
        0.1707918792963028,
        1.0295610427856445,
        9.709837913513184,
        1.0
      ],
      "name": "Object_4"
    },
    {
      "mesh": 0,
      "name": "Bot_Material #2_0"
    }
  ],
  "samplers": [
    {
      "magFilter": 9729,
      "minFilter": 9987,
      "wrapS": 10497,
      "wrapT": 10497
    }
  ],
  "scene": 0,
  "scenes": [
    {
      "name": "Sketchfab_Scene",
      "nodes": [
        0
      ]
    }
  ],
  "textures": [
    {
      "sampler": 0,
      "source": 0
    },
    {
      "sampler": 0,
      "source": 1
    }
  ]
}
