{
	"asset":{
		"generator":"Khronos glTF Blender I/O v4.2.69",
		"version":"2.0"
	},
	"scene":0,
	"scenes":[
		{
			"name":"Scene",
			"nodes":[
				0,
				1,
				2,
				3
			]
		}
	],
	"nodes":[
		{
			"name":"model(3)"
		},
		{
			"mesh":0,
			"name":"avaturn_body"
		},
		{
			"mesh":1,
			"name":"avaturn_hair_0"
		},
		{
			"mesh":2,
			"name":"avaturn_hair_1"
		}
	],
	"materials":[
		{
			"doubleSided":true,
			"name":"avaturn_body_material.001",
			"normalTexture":{
				"index":0
			},
			"pbrMetallicRoughness":{
				"baseColorTexture":{
					"index":1
				},
				"metallicFactor":0.800000011920929,
				"metallicRoughnessTexture":{
					"index":2
				}
			}
		},
		{
			"alphaMode":"MASK",
			"doubleSided":true,
			"name":"avaturn_hair_0_material.001",
			"normalTexture":{
				"index":3
			},
			"pbrMetallicRoughness":{
				"baseColorTexture":{
					"index":4
				},
				"metallicFactor":0.19090910255908966,
				"roughnessFactor":0.8999999761581421
			}
		},
		{
			"alphaCutoff":0.10000000149011612,
			"alphaMode":"MASK",
			"name":"avaturn_hair_1_material.001",
			"normalTexture":{
				"index":5
			},
			"pbrMetallicRoughness":{
				"baseColorTexture":{
					"index":6
				},
				"metallicFactor":0.19090910255908966,
				"roughnessFactor":0.8999999761581421
			}
		}
	],
	"meshes":[
		{
			"name":"meshes[0]",
			"primitives":[
				{
					"attributes":{
						"POSITION":0,
						"NORMAL":1,
						"TEXCOORD_0":2
					},
					"indices":3,
					"material":0
				}
			]
		},
		{
			"name":"meshes[3]",
			"primitives":[
				{
					"attributes":{
						"POSITION":4,
						"NORMAL":5,
						"TEXCOORD_0":6
					},
					"indices":7,
					"material":1
				}
			]
		},
		{
			"name":"meshes[4]",
			"primitives":[
				{
					"attributes":{
						"POSITION":8,
						"NORMAL":9,
						"TEXCOORD_0":10
					},
					"indices":11,
					"material":2
				}
			]
		}
	],
	"textures":[
		{
			"sampler":0,
			"source":0
		},
		{
			"sampler":1,
			"source":1
		},
		{
			"sampler":1,
			"source":2
		},
		{
			"sampler":0,
			"source":3
		},
		{
			"sampler":1,
			"source":4
		},
		{
			"sampler":0,
			"source":3
		},
		{
			"sampler":1,
			"source":4
		}
	],
	"images":[
		{
			"mimeType":"image/png",
			"name":"image_2",
			"uri":"image_2.png"
		},
		{
			"mimeType":"image/png",
			"name":"image_1",
			"uri":"image_1.png"
		},
		{
			"mimeType":"image/png",
			"name":"image_0",
			"uri":"image_0.png"
		},
		{
			"mimeType":"image/png",
			"name":"image_12",
			"uri":"image_12.png"
		},
		{
			"mimeType":"image/png",
			"name":"image_11",
			"uri":"image_11.png"
		}
	],
	"accessors":[
		{
			"bufferView":0,
			"componentType":5126,
			"count":3679,
			"max":[
				0.09433899819850922,
				1.8537850379943848,
				0.10799934715032578
			],
			"min":[
				-0.09281810373067856,
				1.5344842672348022,
				-0.1307118833065033
			],
			"type":"VEC3"
		},
		{
			"bufferView":1,
			"componentType":5126,
			"count":3679,
			"type":"VEC3"
		},
		{
			"bufferView":2,
			"componentType":5126,
			"count":3679,
			"type":"VEC2"
		},
		{
			"bufferView":3,
			"componentType":5123,
			"count":21372,
			"type":"SCALAR"
		},
		{
			"bufferView":4,
			"componentType":5126,
			"count":1812,
			"max":[
				0.09708617627620697,
				1.8698527812957764,
				0.08082707971334457
			],
			"min":[
				-0.10176040232181549,
				1.6698049306869507,
				-0.1433887481689453
			],
			"type":"VEC3"
		},
		{
			"bufferView":5,
			"componentType":5126,
			"count":1812,
			"type":"VEC3"
		},
		{
			"bufferView":6,
			"componentType":5126,
			"count":1812,
			"type":"VEC2"
		},
		{
			"bufferView":7,
			"componentType":5123,
			"count":6288,
			"type":"SCALAR"
		},
		{
			"bufferView":8,
			"componentType":5126,
			"count":2654,
			"max":[
				0.10097090899944305,
				1.8828972578048706,
				0.09098176658153534
			],
			"min":[
				-0.1005101203918457,
				1.623841404914856,
				-0.14595499634742737
			],
			"type":"VEC3"
		},
		{
			"bufferView":9,
			"componentType":5126,
			"count":2654,
			"type":"VEC3"
		},
		{
			"bufferView":10,
			"componentType":5126,
			"count":2654,
			"type":"VEC2"
		},
		{
			"bufferView":11,
			"componentType":5123,
			"count":8904,
			"type":"SCALAR"
		}
	],
	"bufferViews":[
		{
			"buffer":0,
			"byteLength":44148,
			"byteOffset":0,
			"target":34962
		},
		{
			"buffer":0,
			"byteLength":44148,
			"byteOffset":44148,
			"target":34962
		},
		{
			"buffer":0,
			"byteLength":29432,
			"byteOffset":88296,
			"target":34962
		},
		{
			"buffer":0,
			"byteLength":42744,
			"byteOffset":117728,
			"target":34963
		},
		{
			"buffer":0,
			"byteLength":21744,
			"byteOffset":160472,
			"target":34962
		},
		{
			"buffer":0,
			"byteLength":21744,
			"byteOffset":182216,
			"target":34962
		},
		{
			"buffer":0,
			"byteLength":14496,
			"byteOffset":203960,
			"target":34962
		},
		{
			"buffer":0,
			"byteLength":12576,
			"byteOffset":218456,
			"target":34963
		},
		{
			"buffer":0,
			"byteLength":31848,
			"byteOffset":231032,
			"target":34962
		},
		{
			"buffer":0,
			"byteLength":31848,
			"byteOffset":262880,
			"target":34962
		},
		{
			"buffer":0,
			"byteLength":21232,
			"byteOffset":294728,
			"target":34962
		},
		{
			"buffer":0,
			"byteLength":17808,
			"byteOffset":315960,
			"target":34963
		}
	],
	"samplers":[
		{
			"magFilter":9729,
			"minFilter":9987
		},
		{
			"magFilter":9729,
			"minFilter":9987,
			"wrapS":33071,
			"wrapT":33071
		}
	],
	"buffers":[
		{
			"byteLength":333768,
			"uri":"scene%283%29.bin"
		}
	]
}
