{
	"asset":{
		"generator":"Khronos glTF Blender I/O v4.2.69",
		"version":"2.0"
	},
	"scene":0,
	"scenes":[
		{
			"name":"Scene",
			"nodes":[
				0
			]
		}
	],
	"nodes":[
		{
			"mesh":0,
			"name":"Piano",
			"translation":[
				-0.16751059889793396,
				0.6447257399559021,
				0.31074464321136475
			]
		}
	],
	"materials":[
		{
			"doubleSided":true,
			"name":"grand_piano",
			"normalTexture":{
				"index":0
			},
			"pbrMetallicRoughness":{
				"baseColorTexture":{
					"index":1
				},
				"metallicRoughnessTexture":{
					"index":2
				}
			}
		}
	],
	"meshes":[
		{
			"name":"Piano",
			"primitives":[
				{
					"attributes":{
						"POSITION":0,
						"NORMAL":1,
						"TEXCOORD_0":2
					},
					"indices":3,
					"material":0
				}
			]
		}
	],
	"textures":[
		{
			"sampler":0,
			"source":0
		},
		{
			"sampler":0,
			"source":1
		},
		{
			"sampler":0,
			"source":2
		}
	],
	"images":[
		{
			"mimeType":"image/png",
			"name":"grand_piano_Piano_Normal_GL",
			"uri":"grand_piano_Piano_Normal_GL.png"
		},
		{
			"mimeType":"image/png",
			"name":"grand_piano_Piano_BaseColor",
			"uri":"grand_piano_Piano_BaseColor.png"
		},
		{
			"mimeType":"image/png",
			"name":"grand_piano_Piano_Metallic-grand_piano_Piano_Roughness",
			"uri":"grand_piano_Piano_Metallic-grand_piano_Piano_Roughness.png"
		}
	],
	"accessors":[
		{
			"bufferView":0,
			"componentType":5126,
			"count":56450,
			"max":[
				0.8008120059967041,
				0.39468318223953247,
				0.39386582374572754
			],
			"min":[
				-0.7385246157646179,
				-0.6425001621246338,
				-1.2668310403823853
			],
			"type":"VEC3"
		},
		{
			"bufferView":1,
			"componentType":5126,
			"count":56450,
			"type":"VEC3"
		},
		{
			"bufferView":2,
			"componentType":5126,
			"count":56450,
			"type":"VEC2"
		},
		{
			"bufferView":3,
			"componentType":5123,
			"count":183309,
			"type":"SCALAR"
		}
	],
	"bufferViews":[
		{
			"buffer":0,
			"byteLength":677400,
			"byteOffset":0,
			"target":34962
		},
		{
			"buffer":0,
			"byteLength":677400,
			"byteOffset":677400,
			"target":34962
		},
		{
			"buffer":0,
			"byteLength":451600,
			"byteOffset":1354800,
			"target":34962
		},
		{
			"buffer":0,
			"byteLength":366618,
			"byteOffset":1806400,
			"target":34963
		}
	],
	"samplers":[
		{
			"magFilter":9729,
			"minFilter":9987
		}
	],
	"buffers":[
		{
			"byteLength":2173020,
			"uri":"grand_piano_%28GLB%29.bin"
		}
	]
}
