{
	"asset":{
		"generator":"Khronos glTF Blender I/O v4.4.56",
		"version":"2.0"
	},
	"scene":0,
	"scenes":[
		{
			"name":"Scene",
			"nodes":[
				0,
				1
			]
		}
	],
	"nodes":[
		{
			"mesh":0,
			"name":"Piano",
			"translation":[
				-0.16751059889793396,
				0.6447257399559021,
				0.31074464321136475
			]
		},
		{
			"mesh":1,
			"name":"bench",
			"translation":[
				-0.12382517755031586,
				0.3171641230583191,
				1.029477596282959
			]
		}
	],
	"materials":[
		{
			"doubleSided":true,
			"name":"grand_piano",
			"normalTexture":{
				"index":0
			},
			"pbrMetallicRoughness":{
				"baseColorTexture":{
					"index":1
				},
				"metallicRoughnessTexture":{
					"index":2
				}
			}
		},
		{
			"doubleSided":true,
			"name":"grand_piano_bench",
			"normalTexture":{
				"index":3
			},
			"pbrMetallicRoughness":{
				"baseColorTexture":{
					"index":4
				},
				"metallicRoughnessTexture":{
					"index":5
				}
			}
		}
	],
	"meshes":[
		{
			"name":"Piano",
			"primitives":[
				{
					"attributes":{
						"POSITION":0,
						"NORMAL":1,
						"TEXCOORD_0":2
					},
					"indices":3,
					"material":0
				}
			]
		},
		{
			"name":"bench",
			"primitives":[
				{
					"attributes":{
						"POSITION":4,
						"NORMAL":5,
						"TEXCOORD_0":6
					},
					"indices":7,
					"material":1
				}
			]
		}
	],
	"textures":[
		{
			"sampler":0,
			"source":0
		},
		{
			"sampler":0,
			"source":1
		},
		{
			"sampler":0,
			"source":2
		},
		{
			"sampler":0,
			"source":3
		},
		{
			"sampler":0,
			"source":4
		},
		{
			"sampler":0,
			"source":5
		}
	],
	"images":[
		{
			"mimeType":"image/png",
			"name":"grand_piano_Piano_Normal_GL",
			"uri":"grand_piano_Piano_Normal_GL.png"
		},
		{
			"mimeType":"image/png",
			"name":"grand_piano_Piano_BaseColor",
			"uri":"grand_piano_Piano_BaseColor.png"
		},
		{
			"mimeType":"image/png",
			"name":"grand_piano_Piano_Metallic-grand_piano_Piano_Roughness",
			"uri":"grand_piano_Piano_Metallic-grand_piano_Piano_Roughness.png"
		},
		{
			"mimeType":"image/png",
			"name":"grand_piano_Bench_Normal_GL",
			"uri":"grand_piano_Bench_Normal_GL.png"
		},
		{
			"mimeType":"image/png",
			"name":"grand_piano_Bench_BaseColor",
			"uri":"grand_piano_Bench_BaseColor.png"
		},
		{
			"mimeType":"image/png",
			"name":"grand_piano_Bench_Metallic-grand_piano_Bench_Roughness",
			"uri":"grand_piano_Bench_Metallic-grand_piano_Bench_Roughness.png"
		}
	],
	"accessors":[
		{
			"bufferView":0,
			"componentType":5126,
			"count":49545,
			"max":[
				0.8008120059967041,
				0.39468318223953247,
				0.39386582374572754
			],
			"min":[
				-0.7385246157646179,
				-0.6425001621246338,
				-1.2668310403823853
			],
			"type":"VEC3"
		},
		{
			"bufferView":1,
			"componentType":5126,
			"count":49545,
			"type":"VEC3"
		},
		{
			"bufferView":2,
			"componentType":5126,
			"count":49545,
			"type":"VEC2"
		},
		{
			"bufferView":3,
			"componentType":5123,
			"count":183660,
			"type":"SCALAR"
		},
		{
			"bufferView":4,
			"componentType":5126,
			"count":18230,
			"max":[
				0.3156020939350128,
				0.15448129177093506,
				0.17146356403827667
			],
			"min":[
				-0.33851903676986694,
				-0.3159671127796173,
				-0.17228060960769653
			],
			"type":"VEC3"
		},
		{
			"bufferView":5,
			"componentType":5126,
			"count":18230,
			"type":"VEC3"
		},
		{
			"bufferView":6,
			"componentType":5126,
			"count":18230,
			"type":"VEC2"
		},
		{
			"bufferView":7,
			"componentType":5123,
			"count":88236,
			"type":"SCALAR"
		}
	],
	"bufferViews":[
		{
			"buffer":0,
			"byteLength":594540,
			"byteOffset":0,
			"target":34962
		},
		{
			"buffer":0,
			"byteLength":594540,
			"byteOffset":594540,
			"target":34962
		},
		{
			"buffer":0,
			"byteLength":396360,
			"byteOffset":1189080,
			"target":34962
		},
		{
			"buffer":0,
			"byteLength":367320,
			"byteOffset":1585440,
			"target":34963
		},
		{
			"buffer":0,
			"byteLength":218760,
			"byteOffset":1952760,
			"target":34962
		},
		{
			"buffer":0,
			"byteLength":218760,
			"byteOffset":2171520,
			"target":34962
		},
		{
			"buffer":0,
			"byteLength":145840,
			"byteOffset":2390280,
			"target":34962
		},
		{
			"buffer":0,
			"byteLength":176472,
			"byteOffset":2536120,
			"target":34963
		}
	],
	"samplers":[
		{
			"magFilter":9729,
			"minFilter":9987
		}
	],
	"buffers":[
		{
			"byteLength":2712592,
			"uri":"grand_piano_%28GLB%29.bin"
		}
	]
}
